
        <svg xmlns="http://www.w3.org/2000/svg" xmlns:xlink="http://www.w3.org/1999/xlink" version="1.1" width="3229.885057471264" 
        height="1636.781609195402" viewBox="0 0 3229.885057471264 1636.781609195402">
			
			<g transform="scale(11.494252873563218) translate(10, 10)">
				<defs id="SvgjsDefs2683"></defs><g id="SvgjsG2684" featureKey="symbolFeature-0" transform="matrix(8.638348295193316,0,0,8.638348295193316,-17.27669659038663,0)" fill="#83b271"><path xmlns="http://www.w3.org/2000/svg" d="M10.216,14.068c-0.122,0.135-0.322,0.135-0.444,0.001l-2.769-3.084c-0.123-0.135-0.118-0.351,0.011-0.479l0.475-0.476  c0.129-0.128,0.338-0.127,0.464,0.004L9.758,11.9c0.127,0.131,0.332,0.128,0.454-0.007l3.424-3.752  c0.123-0.134,0.334-0.145,0.47-0.022l0.42,0.33c0.458,0.458,0.494,0.506,0,1L10.216,14.068z"></path><path xmlns="http://www.w3.org/2000/svg" d="M7.5,2C7,2,7,3,7,3h1C8,3,8,2,7.5,2z"></path><path xmlns="http://www.w3.org/2000/svg" d="M12,2h-2C9.914,1,9,0,7.5,0S5.086,1,5,2H3c0,0-1,0-1,1c0,0.815,0,9,0,10s1,1,1,1h5.628l-2.5-2.485  c-0.42-0.461-0.191-1.052,0.25-1.492l0.75-0.747c0.217-0.217,0.444-0.248,0.75-0.248c0.309,0,0.785,0.279,1,0.502l1.145,1.25  L13,7.571C13,7.571,13,4,13,3S12,2,12,2z M4.5,8H4c0,0-0.5,0-0.5-0.5S4,7,4,7h0.5C4.5,7,5,7,5,7.5S4.5,8,4.5,8z M4.5,6H4  c0,0-0.5,0-0.5-0.5S4,5,4,5h0.5C4.5,5,5,5,5,5.5S4.5,6,4.5,6z M11,8H6.5C6.5,8,6,8,6,7.5S6.5,7,6.5,7H11c0,0,0.5,0,0.5,0.5  S11,8,11,8z M11,6H6.5C6.5,6,6,6,6,5.5S6.5,5,6.5,5H11c0,0,0.5,0,0.5,0.5S11,6,11,6z M3,4c0,0,0-1,1-1s2,0,2,0s0-1.938,1.5-1.938  S9.027,3,9,3c0,0,1,0,2,0s1,1,1,1H3z"></path></g><g id="SvgjsG2685" featureKey="nameFeature-0" transform="matrix(0.7934570489851471,0,0,0.7934570489851471,130.87304519607275,28.065431780247355)" fill="#111111"><path d="M19.6 12.04 l1.28 1.36 l-0.96 1.56 l0.76 2.08 l-6.92 0.48 l0.16 23 l-1.88 -0.12 l-1.6 0.96 l-1.4 -1.4 l-2.12 1.04 l-0.16 -22.96 l-5.04 0.36 l-0.8 -2.8 l0.6 -1.88 l-1.36 -2.28 l20.2 -1.4 z M39.519999999999996 22.32 c-0.76 -4.56 -3.64 -6.16 -7.84 -3.92 c-6.92 3.68 -7.72 10.64 -5.48 13.56 c2.16 2.8 5.68 2.36 8.16 0.84 c4.28 -2.64 5.76 -6.92 5.16 -10.48 z M46.480000000000004 19.8 c1.4 8.72 -2.72 15.24 -5.6 17.36 c-9.2 6.76 -16.72 4.56 -20.84 -1.56 c-4.64 -6.92 0.2 -21.28 11.64 -24.92 c1.24 -0.4 3.4 -0.64 5.56 -0.44 l0.44 1.92 l0.88 -0.16 l0.76 0.64 l0.56 -1.44 c3.56 1.84 5.92 4.48 6.6 8.6 z M69.32 37.56 l0.92 1.96 l-16.24 2.76 l-0.24 -1.88 l-1.8 0.04 l0.28 -2 l-1.92 -0.08 l0.6 -20.6 l-2 0 l0.96 -2 l-1 -1.28 l0.6 -1.52 l-0.4 -2.04 l18.64 -0.92 l0.68 3.16 l-1.12 1.24 l0.92 2.6 l-10.24 0.48 l-0.16 5.4 l9.32 -1.12 l-0.88 2.6 l1.4 1.24 l-0.76 3.2 l-9.28 1.16 l-0.12 4.56 l12.16 -2 l-0.8 2.36 l1.24 1.2 z M102.76 24.04 c1.48 -3.16 1.08 -5.8 -3.68 -6.8 c-1.4 -0.32 -2.8 -0.08 -4.2 0.04 l0.16 15.32 c3.16 -2.28 6.32 -5.56 7.72 -8.56 z M110.52 19.32 c0.88 9.92 -11.04 19.36 -17.68 22.68 c-0.56 -0.56 -2.48 -1.04 -2.48 -1.04 l-0.4 -2.36 l-1.6 -0.36 l-0.4 -20.24 l-2.4 0.32 l0.8 -2.16 l-1.08 -1.36 l0.92 -1.68 l-0.96 -1.92 c3.92 -0.64 10.16 -1.36 15.2 -0.68 c4.96 0.64 9.56 2.84 10.08 8.8 z M133.28 22.32 c-0.76 -4.56 -3.64 -6.16 -7.84 -3.92 c-6.92 3.68 -7.72 10.64 -5.48 13.56 c2.16 2.8 5.68 2.36 8.16 0.84 c4.28 -2.64 5.76 -6.92 5.16 -10.48 z M140.24 19.8 c1.4 8.72 -2.72 15.24 -5.6 17.36 c-9.2 6.76 -16.72 4.56 -20.84 -1.56 c-4.64 -6.92 0.2 -21.28 11.64 -24.92 c1.24 -0.4 3.4 -0.64 5.56 -0.44 l0.44 1.92 l0.88 -0.16 l0.76 0.64 l0.56 -1.44 c3.56 1.84 5.92 4.48 6.6 8.6 z M163.07999999999998 37.56 l0.92 1.96 l-16.24 2.76 l-0.24 -1.88 l-1.8 0.04 l0.28 -2 l-1.92 -0.08 l0.6 -20.6 l-2 0 l0.96 -2 l-1 -1.28 l0.6 -1.52 l-0.4 -2.04 l18.64 -0.92 l0.68 3.16 l-1.12 1.24 l0.92 2.6 l-10.24 0.48 l-0.16 5.4 l9.32 -1.12 l-0.88 2.6 l1.4 1.24 l-0.76 3.2 l-9.28 1.16 l-0.12 4.56 l12.16 -2 l-0.8 2.36 l1.24 1.2 z"></path></g><g id="SvgjsG2686" featureKey="sloganFeature-0" transform="matrix(0.3164431817276467,0,0,0.3164431817276467,137.00000015089188,80.27222051747944)" fill="#111111"><path d="M7.08 5.720000000000001 l-2.68 8.68 l0 5.6 l-1.94 0 l0 -5.62 l-2.46 -8.66 l2 0 l1.46 5.14 l1.6 -5.14 l2.02 0 z M12.915 20.02 c-1.5 0 -2.7 -1.22 -2.7 -2.7 l0 -8.98 c0 -1.48 1.2 -2.68 2.7 -2.68 c1.48 0 2.68 1.2 2.68 2.68 l0 8.98 c0 1.48 -1.2 2.7 -2.68 2.7 z M12.915 7.5600000000000005 c-0.44 0 -0.78 0.36 -0.78 0.78 l0 8.98 c0 0.44 0.34 0.78 0.78 0.78 c0.42 0 0.78 -0.34 0.78 -0.78 l0 -8.98 c0 -0.42 -0.36 -0.78 -0.78 -0.78 z M21.67 20.04 c-1.62 0 -2.94 -1.32 -2.94 -2.94 l0 -11.36 l1.9 0 l0 11.36 c0 0.58 0.46 1.06 1.04 1.06 s1.04 -0.48 1.04 -1.06 l0 -11.36 l1.9 0 l0 11.36 c0 1.62 -1.32 2.94 -2.94 2.94 z M36.56 19.96 c-1.48 0 -2.68 -1.2 -2.68 -2.68 l0 -8.88 c0 -1.48 1.2 -2.68 2.68 -2.68 s2.68 1.2 2.68 2.68 l0 0.8 l-1.9 0 l0 -0.8 c0 -0.42 -0.36 -0.78 -0.78 -0.78 s-0.78 0.36 -0.78 0.78 l0 8.88 c0 0.42 0.36 0.78 0.78 0.78 s0.78 -0.36 0.78 -0.78 l0 -1.28 l1.9 0 l0 1.28 c0 1.48 -1.2 2.68 -2.68 2.68 z M47.695 20 l-0.72 -4.94 l-2.02 0 l-0.66 4.94 l-1.92 0 l2.16 -14.3 l2.58 0 l2.5 14.3 l-1.92 0 z M45.215 13.16 l1.48 0 l-0.76 -5.2 z M57.39 16.72 l0.08 -11.08 l1.92 0 l-0.12 14.44 l-2.98 0 l-1.62 -11.18 l0 11.18 l-1.92 0 l0 -14.44 l3.1 0 z M71.36 20.02 c-1.5 0 -2.7 -1.22 -2.7 -2.7 l0 -8.98 c0 -1.48 1.2 -2.68 2.7 -2.68 c1.48 0 2.68 1.2 2.68 2.68 l0 8.98 c0 1.48 -1.2 2.7 -2.68 2.7 z M71.36 7.5600000000000005 c-0.44 0 -0.78 0.36 -0.78 0.78 l0 8.98 c0 0.44 0.34 0.78 0.78 0.78 c0.42 0 0.78 -0.34 0.78 -0.78 l0 -8.98 c0 -0.42 -0.36 -0.78 -0.78 -0.78 z M81.815 16.72 l0.08 -11.08 l1.92 0 l-0.12 14.44 l-2.98 0 l-1.62 -11.18 l0 11.18 l-1.92 0 l0 -14.44 l3.1 0 z M88.83 18.12 l2.76 0 l0 1.88 l-4.64 0 l0 -14.36 l1.88 0 l0 12.48 z M100.08500000000001 5.720000000000001 l-2.68 8.68 l0 5.6 l-1.94 0 l0 -5.62 l-2.46 -8.66 l2 0 l1.46 5.14 l1.6 -5.14 l2.02 0 z M115.15500000000002 5.68 l3.34 0 l0 14.28 l-1.88 0 l0 -11.3 l-1.78 11.34 l-0.74 0 l-0.18 -0.04 l-0.16 0.04 l-0.74 0 l-1.76 -11.34 l0 11.3 l-1.9 0 l0 -14.28 l3.36 0 l1.22 8.08 z M126.53000000000003 20 l-0.72 -4.94 l-2.02 0 l-0.66 4.94 l-1.92 0 l2.16 -14.3 l2.58 0 l2.5 14.3 l-1.92 0 z M124.05000000000003 13.16 l1.48 0 l-0.76 -5.2 z M136.22500000000002 16.72 l0.08 -11.08 l1.92 0 l-0.12 14.44 l-2.98 0 l-1.62 -11.18 l0 11.18 l-1.92 0 l0 -14.44 l3.1 0 z M146.68000000000004 20 l-0.72 -4.94 l-2.02 0 l-0.66 4.94 l-1.92 0 l2.16 -14.3 l2.58 0 l2.5 14.3 l-1.92 0 z M144.20000000000005 13.16 l1.48 0 l-0.76 -5.2 z M154.01500000000004 20.16 l-0.44 0 c-1.4 0 -2.52 -1.12 -2.52 -2.52 l0 -9.64 c0 -1.4 1.12 -2.54 2.52 -2.54 l0.44 0 c1.4 0 2.52 1.14 2.52 2.54 l0 1.02 l-1.96 0 l0 -1.02 c0 -0.34 -0.24 -0.58 -0.56 -0.58 l-0.44 0 c-0.3 0 -0.58 0.24 -0.58 0.58 l0 9.64 c0 0.3 0.28 0.58 0.58 0.58 l0.44 0 c0.32 0 0.56 -0.28 0.56 -0.58 l0 -5.2 l-1.12 0 l0 -1.94 l3.08 0 l0 7.14 c0 1.4 -1.12 2.52 -2.52 2.52 z M164.33000000000004 12.46 l-2.76 0 l0 5.64 l2.78 0 l0 1.9 l-4.68 0 l0 -14.28 l4.68 0 l0 1.9 l-2.78 0 l0 2.94 l2.76 0 l0 1.9 z M180.54000000000002 5.68 l0 1.92 l-2.38 0 l0 12.42 l-1.92 0 l0 -12.42 l-2.62 0 l0 -1.92 l6.92 0 z M185.33500000000004 5.68 l0 14.24 l-1.9 0 l0 -14.24 l1.9 0 z M194.27000000000004 5.68 l3.34 0 l0 14.28 l-1.88 0 l0 -11.3 l-1.78 11.34 l-0.74 0 l-0.18 -0.04 l-0.16 0.04 l-0.74 0 l-1.76 -11.34 l0 11.3 l-1.9 0 l0 -14.28 l3.36 0 l1.22 8.08 z M205.40500000000003 12.46 l-2.76 0 l0 5.64 l2.78 0 l0 1.9 l-4.68 0 l0 -14.28 l4.68 0 l0 1.9 l-2.78 0 l0 2.94 l2.76 0 l0 1.9 z M216.59500000000003 5.68 l0 14.24 l-1.9 0 l0 -14.24 l1.9 0 z M224.43 10.62 l0 1.88 l-2.82 0 l0 7.46 l-1.88 0 l0 -14.24 l4.66 0 l0 1.9 l-2.78 0 l0 3 l2.82 0 z M240.78000000000003 5.720000000000001 l-2.68 8.68 l0 5.6 l-1.94 0 l0 -5.62 l-2.46 -8.66 l2 0 l1.46 5.14 l1.6 -5.14 l2.02 0 z M246.615 20.02 c-1.5 0 -2.7 -1.22 -2.7 -2.7 l0 -8.98 c0 -1.48 1.2 -2.68 2.7 -2.68 c1.48 0 2.68 1.2 2.68 2.68 l0 8.98 c0 1.48 -1.2 2.7 -2.68 2.7 z M246.615 7.5600000000000005 c-0.44 0 -0.78 0.36 -0.78 0.78 l0 8.98 c0 0.44 0.34 0.78 0.78 0.78 c0.42 0 0.78 -0.34 0.78 -0.78 l0 -8.98 c0 -0.42 -0.36 -0.78 -0.78 -0.78 z M255.37 20.04 c-1.62 0 -2.94 -1.32 -2.94 -2.94 l0 -11.36 l1.9 0 l0 11.36 c0 0.58 0.46 1.06 1.04 1.06 s1.04 -0.48 1.04 -1.06 l0 -11.36 l1.9 0 l0 11.36 c0 1.62 -1.32 2.94 -2.94 2.94 z M274.5 5.68 l0 1.92 l-2.38 0 l0 12.42 l-1.92 0 l0 -12.42 l-2.62 0 l0 -1.92 l6.92 0 z M283.015 20.04 l-2.04 0 l-1.1 -3.02 l-0.44 0 l0 3.02 l-1.9 0 l0 -14.32 l2.98 0 c1.32 0 2.38 1.06 2.38 2.38 l0 6.54 c0 0.86 -0.44 1.6 -1.12 2.02 z M279.43499999999995 7.619999999999999 l0 7.5 l1.08 0 c0.26 0 0.48 -0.22 0.48 -0.48 l0 -6.54 c0 -0.26 -0.22 -0.48 -0.48 -0.48 l-1.08 0 z M291.15 20 l-0.72 -4.94 l-2.02 0 l-0.66 4.94 l-1.92 0 l2.16 -14.3 l2.58 0 l2.5 14.3 l-1.92 0 z M288.66999999999996 13.16 l1.48 0 l-0.76 -5.2 z M298.885 19.96 c-1.48 0 -2.68 -1.2 -2.68 -2.68 l0 -8.88 c0 -1.48 1.2 -2.68 2.68 -2.68 s2.68 1.2 2.68 2.68 l0 0.8 l-1.9 0 l0 -0.8 c0 -0.42 -0.36 -0.78 -0.78 -0.78 s-0.78 0.36 -0.78 0.78 l0 8.88 c0 0.42 0.36 0.78 0.78 0.78 s0.78 -0.36 0.78 -0.78 l0 -1.28 l1.9 0 l0 1.28 c0 1.48 -1.2 2.68 -2.68 2.68 z M308.96 19.92 l-2.1 -7.88 l-0.3 0.5 l0 7.44 l-1.86 0 l0 -14.26 l1.86 0 l0 3.1 l1.24 -3.1 l2.3 0 l-1.9 4.12 l2.7 10.08 l-1.94 0 z M322.06999999999994 5.68 l0 14.24 l-1.9 0 l0 -14.24 l1.9 0 z M332.125 5.68 l0 1.92 l-2.38 0 l0 12.42 l-1.92 0 l0 -12.42 l-2.62 0 l0 -1.92 l6.92 0 z M346.875 20.04 l-2.04 0 l-1.1 -3.02 l-0.44 0 l0 3.02 l-1.9 0 l0 -14.32 l2.98 0 c1.32 0 2.38 1.06 2.38 2.38 l0 6.54 c0 0.86 -0.44 1.6 -1.12 2.02 z M343.29499999999996 7.619999999999999 l0 7.5 l1.08 0 c0.26 0 0.48 -0.22 0.48 -0.48 l0 -6.54 c0 -0.26 -0.22 -0.48 -0.48 -0.48 l-1.08 0 z M351.90999999999997 5.68 l0 14.24 l-1.9 0 l0 -14.24 l1.9 0 z M358.005 20.16 l-0.44 0 c-1.4 0 -2.52 -1.12 -2.52 -2.52 l0 -9.64 c0 -1.4 1.12 -2.54 2.52 -2.54 l0.44 0 c1.4 0 2.52 1.14 2.52 2.54 l0 1.02 l-1.96 0 l0 -1.02 c0 -0.34 -0.24 -0.58 -0.56 -0.58 l-0.44 0 c-0.3 0 -0.58 0.24 -0.58 0.58 l0 9.64 c0 0.3 0.28 0.58 0.58 0.58 l0.44 0 c0.32 0 0.56 -0.28 0.56 -0.58 l0 -5.2 l-1.12 0 l0 -1.94 l3.08 0 l0 7.14 c0 1.4 -1.12 2.52 -2.52 2.52 z M367.26000000000005 5.720000000000001 l1.9 0 l0 14.26 l-1.9 0 l0 -7.54 l-1.7 0 l0 7.54 l-1.9 0 l0 -14.26 l1.9 0 l0 4.84 l1.7 0 l0 -4.84 z M379.21500000000003 5.68 l0 1.92 l-2.38 0 l0 12.42 l-1.92 0 l0 -12.42 l-2.62 0 l0 -1.92 l6.92 0 z"></path></g>
			</g>
		</svg>
	